<svg width="150" height="99" viewBox="0 0 150 99" fill="none" xmlns="http://www.w3.org/2000/svg">
<path d="M54.6152 30.437H50.9165V35H50.521V24.3359H53.9194C54.9888 24.3359 55.8384 24.6118 56.4683 25.1636C57.103 25.7153 57.4204 26.4648 57.4204 27.4121C57.4204 28.1396 57.1934 28.7769 56.7393 29.3237C56.29 29.8657 55.7163 30.2026 55.0181 30.3345L57.8672 34.8975V35H57.4497L54.6152 30.437ZM50.9165 30.0415H54.2783C55.0986 30.0415 55.7603 29.7925 56.2632 29.2944C56.771 28.7964 57.0249 28.1689 57.0249 27.4121C57.0249 26.582 56.7441 25.9277 56.1826 25.4492C55.626 24.9707 54.8618 24.7314 53.8901 24.7314H50.9165V30.0415Z" fill="black"/>
<path d="M83.7031 54.8877C83.7031 53.9795 83.4883 53.2129 83.0586 52.5879C82.6387 51.9531 81.9697 51.3965 81.0518 50.918C80.1436 50.4297 78.7666 49.9316 76.9209 49.4238C75.0752 48.916 73.6885 48.4033 72.7607 47.8857C71.8428 47.3682 71.1689 46.7676 70.7393 46.084C70.3096 45.4004 70.0947 44.5703 70.0947 43.5938C70.0947 42.041 70.749 40.7861 72.0576 39.8291C73.3662 38.8623 75.0703 38.3789 77.1699 38.3789C78.5371 38.3789 79.7627 38.6475 80.8467 39.1846C81.9404 39.7119 82.7852 40.459 83.3809 41.4258C83.9766 42.3828 84.2744 43.4668 84.2744 44.6777H83.4834C83.4834 43.0859 82.8975 41.7725 81.7256 40.7373C80.5537 39.6924 79.0352 39.1699 77.1699 39.1699C75.2949 39.1699 73.7764 39.5898 72.6143 40.4297C71.4619 41.2598 70.8857 42.3047 70.8857 43.5645C70.8857 44.8438 71.3887 45.874 72.3945 46.6553C73.4004 47.4365 75.0605 48.1299 77.375 48.7354C79.6895 49.3311 81.3838 50.0244 82.458 50.8154C83.8252 51.8213 84.5088 53.1689 84.5088 54.8584C84.5088 55.9326 84.2061 56.8848 83.6006 57.7148C82.9951 58.5352 82.1357 59.1699 81.0225 59.6191C79.9092 60.0684 78.6592 60.293 77.2725 60.293C75.7295 60.293 74.3428 60.0391 73.1123 59.5312C71.8818 59.0137 70.9541 58.2812 70.3291 57.334C69.7139 56.3867 69.4062 55.2686 69.4062 53.9795H70.1973C70.1973 55.7275 70.8516 57.085 72.1602 58.0518C73.4688 59.0186 75.1729 59.502 77.2725 59.502C79.1377 59.502 80.6758 59.0771 81.8867 58.2275C83.0977 57.3682 83.7031 56.2549 83.7031 54.8877ZM90.0459 39.873V44.1504H93.6494V44.9561H90.0459V56.2061C90.0459 57.3291 90.2266 58.1592 90.5879 58.6963C90.959 59.2334 91.5742 59.502 92.4336 59.502C92.8633 59.502 93.3857 59.458 94.001 59.3701L94.1328 60.1172C93.8105 60.2344 93.2588 60.293 92.4775 60.293C91.3252 60.293 90.5 59.9756 90.002 59.3408C89.5039 58.6963 89.25 57.6855 89.2402 56.3086V44.9561H86.3105V44.1504H89.2402V39.873H90.0459ZM96.2715 51.7676C96.2715 50.2539 96.5596 48.8965 97.1357 47.6953C97.7217 46.4844 98.542 45.542 99.5967 44.8682C100.661 44.1943 101.862 43.8574 103.2 43.8574C104.528 43.8574 105.72 44.1846 106.774 44.8389C107.829 45.4932 108.649 46.4209 109.235 47.6221C109.831 48.8232 110.134 50.1758 110.144 51.6797V52.3828C110.144 53.9062 109.855 55.2686 109.279 56.4697C108.703 57.6709 107.883 58.6084 106.818 59.2822C105.764 59.9561 104.567 60.293 103.229 60.293C101.892 60.293 100.69 59.9609 99.626 59.2969C98.5713 58.6328 97.751 57.7051 97.165 56.5137C96.5791 55.3125 96.2812 53.9648 96.2715 52.4707V51.7676ZM97.0625 52.3828C97.0625 53.7012 97.3213 54.9121 97.8389 56.0156C98.3662 57.1094 99.0938 57.9639 100.021 58.5791C100.959 59.1943 102.028 59.502 103.229 59.502C105.036 59.502 106.506 58.8232 107.639 57.4658C108.781 56.1084 109.353 54.3604 109.353 52.2217V51.7676C109.353 50.4688 109.089 49.2676 108.562 48.1641C108.034 47.0605 107.302 46.2012 106.364 45.5859C105.437 44.9609 104.382 44.6484 103.2 44.6484C101.394 44.6484 99.9189 45.3369 98.7764 46.7139C97.6338 48.0908 97.0625 49.8242 97.0625 51.9141V52.3828ZM120.983 44.7217L119.958 44.6338C118.61 44.6338 117.482 45.0732 116.574 45.9521C115.666 46.8213 115.07 48.042 114.787 49.6143V60H113.996V44.1504H114.787V47.4463C115.217 46.3428 115.861 45.4688 116.721 44.8242C117.58 44.1797 118.659 43.8574 119.958 43.8574C120.417 43.8574 120.788 43.9111 121.071 44.0186L120.983 44.7217ZM129.157 58.7695L129.26 58.4766L134.738 44.1504H135.617L128.527 62.7539L128.176 63.6328C127.414 65.4785 126.154 66.4014 124.396 66.4014C123.83 66.4014 123.439 66.3477 123.225 66.2402L123.21 65.4932C123.522 65.5811 123.879 65.625 124.279 65.625C125.109 65.625 125.798 65.3809 126.345 64.8926C126.892 64.4141 127.365 63.6279 127.766 62.5342L128.732 59.9121L122.419 44.1504H123.283L129.157 58.7695Z" fill="black"/>
<g clip-path="url(#clip0)">
<path d="M10.109 52.3543C7.8321 50.4291 5.60843 48.6703 3.52574 46.758C0.788507 44.2447 -0.560005 41.2269 0.218424 37.3697C0.810308 34.4371 1.90544 31.8846 4.68105 30.5407C6.44377 29.6873 8.3685 28.9817 10.2934 28.6894C13.977 28.1301 17.7241 27.9884 21.4467 28.3304C26.1895 28.766 30.3495 30.7004 34.0465 33.6519C34.5033 34.0165 34.8087 34.5706 35.1378 34.9793C36.7417 34.9321 38.3352 34.8183 39.9256 34.8513C44.3028 34.9421 47.4308 37.0703 49.443 40.8967C50.3544 42.6297 50.8411 44.5103 50.9827 46.4497C51.1136 48.2438 50.4867 49.8819 49.62 51.433C47.9398 54.4403 45.7817 57.0452 43.0377 59.1332C40.8662 60.7855 38.7743 62.5227 36.3946 63.9226C31.9487 66.5382 27.1667 67.9751 22.0996 68.5532C20.1357 68.7774 18.1459 68.8169 16.1664 68.8527C13.3836 68.9031 11.1914 67.8168 9.94599 65.2307C9.21194 63.7063 8.44265 62.1716 7.95729 60.5609C7.1769 57.9708 7.64242 55.5139 9.33557 53.3436C9.596 53.0098 9.85683 52.6768 10.109 52.3543ZM44.2665 40.7935C44.2597 41.2607 44.0303 41.8085 44.8735 42.1178C44.8367 41.5623 44.8068 41.1097 44.7717 40.5794C44.4764 40.7176 44.3546 40.7747 44.2328 40.8317C44.2966 40.3188 44.5591 39.7451 43.8318 39.4369C43.3678 40.8941 43.3678 40.8941 43.7738 41.6027C43.9487 41.3157 44.1073 41.0551 44.2665 40.7935ZM37.7257 39.6258C37.712 39.3653 37.6982 39.105 37.67 38.5716C37.1866 38.9416 36.8831 39.1738 36.5796 39.4061C36.3322 38.84 36.5627 38.5171 37.1122 38.3521C39.1872 37.7287 41.3013 37.6086 43.384 38.1745C45.545 38.7617 46.2753 39.8965 46.1877 42.1432C46.1732 42.5157 46.1197 42.8946 46.0247 43.2549C45.6647 44.621 45.2621 45.976 44.9099 47.344C44.5424 48.7715 43.7528 49.932 42.6469 50.8573C41.4916 51.824 40.2943 52.7463 39.0675 53.6207C35.4791 56.1776 31.4736 58.0009 27.5666 59.9798C24.3461 61.611 20.882 62.5749 17.2491 62.7298C15.5515 62.8023 13.8571 62.6574 12.2814 61.891C10.3564 60.9547 9.69704 59.3847 10.4261 57.2777C10.7997 58.2838 11.1491 59.2249 11.4984 60.1658C11.5697 60.1473 11.641 60.1289 11.7121 60.1104C11.5128 58.8125 11.3136 57.5146 11.1142 56.2166C11.9806 57.687 11.8835 59.4482 12.8095 60.9102C12.9632 60.5601 13.0418 60.2093 12.9874 59.8803C12.8875 59.2776 12.6766 58.6937 12.5708 58.0916C12.4078 57.1635 12.2945 56.2266 12.1601 55.2934C12.26 55.2757 12.3599 55.2579 12.4597 55.2402C12.7551 56.4332 13.0506 57.6264 13.4028 59.0489C14.3987 57.3794 13.5452 55.9415 13.6965 54.536C12.8085 53.9854 11.9776 53.4701 11.0928 52.9215C9.72889 54.37 8.82945 55.9082 8.73298 57.9328C8.61458 60.4182 9.83059 62.3668 10.9871 64.3644C11.2023 64.736 11.5107 65.0538 11.8172 65.4496C11.9443 65.1397 12.0084 64.9837 12.1006 64.759C12.6169 65.8394 12.8681 67.1137 14.4839 66.9858C14.1739 66.1514 13.8901 65.3874 13.6063 64.6235C15.1916 67.2435 15.1916 67.2435 16.0798 67.1157C16.0226 66.7527 15.9656 66.3898 15.9084 66.0267L15.8767 66.0543C16.0638 66.3093 16.2891 66.5452 16.4293 66.8238C16.6637 67.2901 17.0572 67.3889 17.497 67.3244C18.6138 67.1607 19.746 67.2092 20.9125 67.0996C20.6482 66.4139 20.4054 65.784 20.1626 65.1542C20.5226 65.3993 20.7018 65.7141 20.8505 66.0428C21.1718 66.7529 21.5506 67.1601 22.4771 66.9234C24.8935 66.3061 27.4337 66.0575 29.7527 65.1983C34.9775 63.2623 39.6619 60.3633 43.6581 56.4215C45.4561 54.6479 46.9622 52.6507 48.1366 50.429C48.6113 49.5309 49.0086 48.4967 49.0802 47.4986C49.286 44.6317 48.4694 42.0112 46.8144 39.6349C45.7074 38.0454 44.2067 37.0406 42.4107 36.4827C40.0118 35.7373 37.5806 35.8037 35.1437 36.3832C32.5911 36.9902 30.3259 38.2809 27.9415 39.2959C23.7355 41.0864 19.9875 43.6034 16.3527 46.32C16.1088 46.5024 15.8968 46.7273 15.5182 47.0697C16.4349 47.5155 17.1689 47.8727 18.0171 48.2852C18.0997 47.7819 18.1509 47.4701 18.2126 47.0945C17.8533 47.1265 17.57 47.1517 17.2191 47.1829C18.2594 45.5214 21.9099 43.3323 23.9582 43.081C24.6505 44.6482 23.9402 46.2725 24.0473 47.9181C24.8638 47.6738 24.8407 47.0504 24.9389 46.5158C25.1652 45.2833 25.3707 44.0469 25.5846 42.8121C25.6604 42.8242 25.7361 42.8364 25.812 42.8485C25.6973 44.1812 25.5827 45.5138 25.4484 47.0759C26.0044 46.7019 26.3379 46.4775 26.6276 46.2827C26.6638 44.9412 26.8166 43.7274 27.4759 42.6197C27.3695 43.668 27.2631 44.7164 27.1259 46.0686C29.5706 44.4405 32.0501 43.7143 34.5256 42.9645C34.8846 42.8558 35.1556 42.4569 35.4675 42.1921C36.3196 42.5079 36.563 42.4479 36.8691 41.7611C37.1901 41.0406 37.4697 40.3019 37.7674 39.5709C37.618 40.334 37.4688 41.097 37.2551 42.1889C37.8392 41.8026 38.1798 41.5774 38.4404 41.4049C38.6364 41.4985 38.8082 41.5807 39.0416 41.6923C39.3802 40.6137 39.6839 39.6472 40.0088 38.6124C38.9763 38.5502 38.1151 38.5609 37.7257 39.6258ZM22.2737 49.7425C23.0175 49.2167 23.3267 48.4921 23.4149 47.5889C23.5498 46.2089 23.7874 44.839 23.9815 43.4649C23.8867 43.4147 23.7919 43.3644 23.6972 43.3141C22.431 44.0923 21.1647 44.8705 19.8658 45.6687C19.7567 46.6195 19.6328 47.5495 19.5497 48.483C19.5035 49.0019 19.7726 49.2382 20.3088 49.175C20.5105 48.0065 20.7059 46.8735 20.9014 45.7407C20.9893 45.7535 21.0773 45.7661 21.1651 45.7789C21.0687 47.0136 20.9722 48.2484 20.8756 49.4849C21.2953 49.6271 21.6005 49.7519 21.9176 49.8263C22.0296 49.8527 22.1706 49.7557 22.2984 49.7149L22.2737 49.7425ZM40.8209 45.6706C40.7941 45.1501 40.7674 44.6296 40.7384 44.0669C41.8078 44.7519 42.4296 46.1542 42.145 47.196C41.8103 48.421 41.1661 49.4144 40.0621 50.1191C37.7678 51.5833 35.3916 52.5761 32.5805 52.7881C27.5333 53.1687 22.8404 52.0763 18.2639 50.1397C15.1491 48.8215 12.4003 46.8888 9.73673 44.8611C7.90181 43.4641 6.19822 41.8719 5.04122 39.8072C3.99217 37.9354 4.21005 36.02 5.14996 34.2624C5.84406 32.9641 7.19113 32.2895 8.53756 31.7831C8.63729 31.8531 8.73703 31.9231 8.83676 31.993C8.38247 33.4362 7.92818 34.8795 7.47389 36.3226C8.95921 35.7002 8.72645 33.9347 9.9657 32.9354C9.56336 34.1197 9.22447 35.1176 8.88793 36.1084C9.60005 36.4314 9.80448 36.0679 10.0002 35.5665C10.3388 34.6991 10.7343 33.8538 11.106 32.9993C11.207 33.0358 11.3081 33.0722 11.4091 33.1088C11.0851 34.0994 10.7611 35.0898 10.434 36.0901C11.1231 36.3557 11.2732 35.9772 11.4655 35.5715C11.9719 34.5031 12.5143 33.4517 13.0423 32.3935C13.1255 32.4336 13.2087 32.4736 13.2918 32.5136C12.8333 33.7114 12.3749 34.9091 11.8883 36.1802C13.0514 36.3792 12.9486 35.436 13.2667 34.9709C13.6398 34.4253 13.9219 33.8175 14.2435 33.2367C14.3217 33.2759 14.3997 33.315 14.4779 33.3541C14.105 34.314 13.7319 35.2739 13.3589 36.2337C13.4751 36.2937 13.5914 36.3536 13.7076 36.4136C14.5341 35.0867 15.3607 33.7597 16.1871 32.4326C16.2801 32.4873 16.3732 32.542 16.4661 32.5965C15.8535 33.7854 15.241 34.9743 14.6322 36.1555C14.7599 36.2715 14.8194 36.3698 14.897 36.387C15.0776 36.4271 15.2669 36.4281 15.446 36.4443C15.9493 34.8296 16.7999 33.4921 17.909 32.6941C17.2623 34.0255 16.6912 35.2011 16.0841 36.4508C19.4576 37.1311 22.814 37.6379 25.9623 39.046C27.8854 38.1197 29.8284 37.1836 31.8745 36.198C30.3756 34.9867 28.7625 34.3089 27.1418 33.6917C25.5048 33.0682 23.8085 32.6003 22.1292 32.0614C24.1966 31.4658 30.5261 33.9644 32.254 36.0615C32.4716 35.9946 32.7039 35.9425 32.9196 35.8511C33.1132 35.7691 33.2888 35.6442 33.4955 35.5248C33.3533 35.3353 33.278 35.2155 33.1833 35.1134C33.0553 34.975 32.9225 34.8376 32.7745 34.7217C28.588 31.4428 23.8829 29.6319 18.5179 29.6892C17.5261 29.6998 16.5329 29.664 15.5429 29.7067C13.7106 29.7857 11.8575 29.764 10.0551 30.0494C8.10624 30.358 6.19979 30.947 4.46643 31.9715C3.7474 32.3964 3.17706 32.9376 2.96231 33.758C2.60476 35.1232 2.25712 36.4923 1.95543 37.8706C1.27935 40.9584 2.48009 43.455 4.63314 45.512C6.40396 47.2039 8.34905 48.7133 10.2137 50.3072C13.8251 53.394 18.1839 54.8499 22.6592 56.0331C23.0461 55.7083 23.4207 55.394 23.7952 55.0796C23.8359 55.1256 23.8767 55.1714 23.9174 55.2173C23.6503 55.5099 23.3831 55.8024 23.1017 56.1105C24.0691 56.5286 24.0684 56.5277 24.5896 56.0895C25.0501 55.7023 25.412 55.1613 26.3538 54.8931C25.6744 55.656 25.2197 56.1665 24.6812 56.7712C25.9211 57.2119 26.3681 56.1089 27.3525 55.7865C27.0323 56.2511 26.82 56.5589 26.5951 56.8853C27.2336 57.3624 27.7273 57.3096 28.2296 56.7436C28.8246 56.0734 29.4719 55.4487 30.1119 54.82C30.337 54.599 30.6077 54.4244 30.8576 54.2287C30.9033 54.2893 30.949 54.3499 30.9947 54.4104C30.2088 55.3057 29.4229 56.2008 28.6353 57.0982C29.2327 57.5454 29.5524 57.2226 29.8508 56.9192C30.6785 56.0779 31.4877 55.2182 32.3134 54.3749C32.6146 54.0672 32.9413 53.7848 33.2564 53.4908C33.3151 53.5555 33.3735 53.6201 33.4322 53.6849C32.9491 54.3389 32.4661 54.9929 31.9831 55.6468C36.089 53.9149 39.7465 51.6015 42.7655 48.4688C42.3955 46.5401 42.9424 44.5157 41.3629 43.0075C39.461 43.098 37.5918 43.4034 35.6618 44.3711C36.6044 44.7504 37.0077 45.9473 38.1753 45.2616C37.6749 46.3491 38.7642 46.8981 38.9019 47.8828C39.2839 47.5387 39.5541 47.2952 39.8245 47.0516C39.5801 47.6995 39.3357 48.3474 39.0913 48.9953C39.7716 48.4612 40.2225 47.8098 40.7866 47.2785C41.3966 46.7038 41.4161 46.2203 40.8209 45.6706ZM14.4348 46.2413C17.1936 43.5912 20.6095 41.9913 23.9538 39.9896C23.6045 39.8173 23.4508 39.7158 23.282 39.6622C18.8484 38.2532 14.28 37.6236 9.65305 37.4295C8.30245 37.3729 6.96281 37.7228 5.70437 38.2919C6.69924 40.5794 10.2022 43.7759 14.4348 46.2413ZM23.4974 50.2828C28.1247 51.4869 32.7327 51.8588 37.3268 50.356C37.6548 47.8359 36.2604 46.4426 34.5535 45.2095C34.0954 44.8786 33.6821 44.8317 33.1203 44.9901C29.5268 46.0027 26.4284 47.9082 23.4974 50.2828ZM14.5279 61.488C18.9629 61.5586 22.9476 60.4968 26.9892 58.4872C26.4504 58.2864 26.201 58.1581 25.936 58.1012C25.0196 57.9043 24.0864 57.7764 23.1807 57.5413C21.5451 57.1167 19.9267 56.6272 18.2971 56.1792C17.795 56.0411 17.2961 55.9308 16.8807 56.4377C15.707 57.8697 14.6844 59.3664 14.5279 61.488ZM5.31771 37.0434C5.80777 35.9655 6.1947 35.1146 6.58163 34.2636C6.64807 34.2971 6.71465 34.3307 6.7811 34.3644C6.50043 35.1863 6.21989 36.0082 5.8421 37.1144C6.34613 36.8546 6.7046 36.7914 6.77379 36.6148C7.27938 35.3248 7.72688 34.0122 8.23208 32.5964C5.74406 33.785 5.04396 34.8038 5.31771 37.0434ZM42.536 39.6075C42.4314 40.2148 42.3412 40.7388 42.251 41.2628C42.355 41.297 42.4591 41.3312 42.5633 41.3654C43.2199 40.8133 43.1216 39.916 43.4933 39.1152C42.8319 38.9476 42.3032 38.8135 41.67 38.6531C41.4097 39.5768 41.1764 40.4043 40.9129 41.339C42.2167 41.3553 41.7801 40.0946 42.536 39.6075ZM39.6104 41.5111C39.7166 41.5466 39.8228 41.582 39.929 41.6175C40.9183 40.9064 40.8907 39.7408 41.2406 38.3737C40.7311 38.618 40.326 38.6843 40.2712 38.8601C39.9999 39.7277 39.8215 40.6244 39.6104 41.5111ZM14.0555 54.6412C14.2047 55.6077 14.3134 56.3118 14.4615 57.2701C15.0848 56.5451 15.5131 56.0468 16.0153 55.4628C15.3171 55.1702 14.8082 54.9568 14.0555 54.6412ZM44.1785 45.5657C44.3488 44.8498 44.4744 44.3226 44.604 43.7782C43.9644 43.4959 43.4342 43.2619 42.7236 42.9482C43.2525 43.8999 43.6673 44.6459 44.1785 45.5657ZM18.9915 48.659C19.1183 47.8718 19.2451 47.0848 19.3928 46.1689C18.2652 46.8136 18.1606 47.2985 18.9915 48.659Z" fill="black"/>
<path d="M18.6909 64.4102C18.8982 64.9379 19.1054 65.4657 19.3127 65.9935C19.233 66.0224 19.1532 66.0513 19.0733 66.0802C18.8834 65.5473 18.6933 65.0143 18.5034 64.4814C18.5658 64.4577 18.6283 64.434 18.6909 64.4102Z" fill="black"/>
<path d="M17.229 64.8564C17.3526 65.1156 17.4761 65.3747 17.5996 65.6338C17.5436 65.6598 17.4876 65.6858 17.4316 65.7119C17.3123 65.4508 17.1931 65.1896 17.0738 64.9285C17.1256 64.9045 17.1773 64.8805 17.229 64.8564Z" fill="black"/>
<path d="M15.9083 66.0267C15.7024 65.7145 15.4966 65.4026 15.2908 65.0904C15.3848 65.0485 15.4788 65.0067 15.5728 64.9648C15.6742 65.3278 15.7758 65.6905 15.877 66.0538C15.8767 66.0542 15.9083 66.0267 15.9083 66.0267Z" fill="black"/>
<path d="M36.051 40.7549C35.8496 41.2483 35.6482 41.7419 35.4466 42.2354C35.648 41.7419 35.8494 41.2485 36.051 40.7549Z" fill="black"/>
<path d="M36.6171 39.3403C36.4161 39.8335 36.2151 40.3268 36.014 40.82C36.2151 40.3267 36.4161 39.8335 36.6171 39.3403Z" fill="black"/>
<path d="M22.2981 49.7149C22.0079 48.4233 22.1557 46.9704 22.8953 45.3354C22.8211 46.0628 22.7678 46.7931 22.6669 47.5167C22.5635 48.2581 22.4134 48.993 22.2787 49.7365C22.2737 49.7423 22.2981 49.7149 22.2981 49.7149Z" fill="black"/>
</g>
<defs>
<clipPath id="clip0">
<rect width="51" height="51" fill="white" transform="translate(0 23)"/>
</clipPath>
</defs>
</svg>
