<svg width="241" height="62" viewBox="0 0 241 62" fill="none" xmlns="http://www.w3.org/2000/svg">
<path d="M170.603 60.5605C172.7 59.498 174.48 57.6601 175.514 55.449C176.204 53.9557 176.29 53.4962 176.29 50.5097C176.29 47.5519 176.175 46.9489 175.399 44.709C173.073 38.219 168.708 32.9065 160.637 26.7898L158.483 25.1817L160.321 25.354C161.326 25.4401 162.504 25.5263 162.906 25.5263C163.768 25.5263 170.661 29.9486 177.869 35.0889C190.966 44.4792 201.707 49.16 212.679 50.2513C225.057 51.4574 235.914 45.7715 239.59 36.1801C241.6 30.9537 241.457 25.9283 239.188 21.305C236.804 16.4519 231.031 12.891 225.545 12.891C223.966 12.891 221.352 13.6664 220.089 14.4991C215.465 17.5718 217.676 24.4925 223.133 24.033C225 23.8607 226.522 22.7982 227.297 21.1039C228.044 19.4958 227.987 18.1174 227.125 16.4806L226.378 15.1022L227.613 15.3032C229.135 15.5616 231.692 16.7965 233.271 18.06C238.441 22.2239 239.188 30.8389 234.908 37.2427C228.877 46.3171 216.441 48.9877 202.282 44.3069C196.107 42.2681 189.3 38.42 181.546 32.648C179.133 30.8389 175.399 28.1682 173.274 26.7037C171.149 25.2391 169.339 23.9182 169.282 23.7459C169.224 23.5736 169.368 23.5161 169.569 23.6023C169.799 23.6884 171.551 24.2915 173.475 24.9232C185.251 28.7713 197.572 29.604 205.958 27.1057C207.882 26.5314 207.796 26.3591 205.728 26.7324C203.172 27.1919 194.786 27.077 190.937 26.5601C185.136 25.756 177.754 23.832 172.614 21.8219L171.809 21.506L172.355 20.4435C172.671 19.8404 172.987 19.0076 173.102 18.5769C173.188 18.1461 174.279 16.7965 175.514 15.5616C178.099 13.0059 178.846 11.6562 178.846 9.55988C178.875 5.0801 173.734 2.95507 166.783 4.5632C164.055 5.19497 160.12 7.00411 152.251 11.2829L149.723 12.6613L147.828 12.0295C146.334 11.5126 145.99 11.3116 146.133 10.9096C146.248 10.6511 146.392 9.96192 146.478 9.38758C146.621 8.46865 146.507 8.21021 145.76 7.43486C145.099 6.80309 144.611 6.57336 143.836 6.57336C142.457 6.57336 140.935 7.23384 139.958 8.29636L139.125 9.18657L135.995 8.52609L132.864 7.89432L134.386 6.42978C135.851 5.05138 136.311 4.27604 135.65 4.27604C135.478 4.27604 135.363 4.3909 135.363 4.5632C135.363 4.99395 133.611 6.86053 132.807 7.29128C132.175 7.60716 131.974 7.60716 131.486 7.26256C131.084 6.94668 130.509 6.88924 129.447 7.03283C128.039 7.20513 127.982 7.17641 127.206 6.14261C125.742 4.24732 122.956 3.7017 120.658 4.87908C119.509 5.45342 119.452 5.45342 118.36 4.96523L117.269 4.47705L117.901 3.75914C119.136 2.43818 119.538 2.40946 120.601 3.44326C121.146 3.96015 121.577 4.24732 121.577 4.07502C121.577 3.874 121.175 3.47197 120.716 3.12737C120.227 2.78277 119.94 2.38074 120.026 2.23716C120.227 1.86384 121.405 1.40438 122.726 1.11721C123.702 0.887481 123.731 0.887481 122.87 0.858765C122.381 0.858765 121.434 1.11721 120.744 1.4331L119.452 2.00743L118.102 1.40438C117.355 1.0885 116.379 0.858765 115.919 0.858765C115.172 0.916198 115.144 0.916198 115.833 1.03106C116.896 1.20336 118.992 2.00743 118.992 2.23716C118.992 2.35203 118.561 2.84021 118.045 3.35711C117.24 4.13245 116.867 4.27604 115.718 4.27604C113.966 4.27604 112.616 4.9078 111.755 6.17133C110.922 7.37743 110.749 7.46357 109.313 7.06154C108.337 6.80309 108.021 6.83181 107.418 7.23384C106.729 7.69331 106.642 7.66459 105.551 6.86053C104.919 6.40106 104.172 5.62571 103.885 5.16625C103.397 4.33347 102.909 3.98887 102.909 4.50577C102.909 4.93652 104.718 6.88924 105.522 7.29128C105.982 7.54972 106.355 7.83689 106.355 7.95176C106.355 8.06662 104.977 8.52609 103.282 8.92812L100.209 9.67475L99.0315 8.43994C95.8148 5.02267 91.0472 6.71694 92.7992 10.6798L93.3736 11.9434L91.7078 12.5464L90.042 13.1207L84.2404 9.99063C77.6347 6.40106 74.7052 5.10882 71.4885 4.41962C63.3606 2.61048 57.875 6.83181 60.8332 12.6038C61.1204 13.1495 62.3554 14.614 63.5904 15.8201C65.1413 17.3421 65.8593 18.2323 65.8593 18.7205C65.8593 19.0938 66.2327 19.984 66.7209 20.7306C67.1805 21.4485 67.4677 22.109 67.3528 22.1952C66.922 22.4249 60.7183 24.3489 58.5356 24.9232C50.6662 26.9047 40.9012 27.6513 35.1571 26.6462C33.0892 26.3016 32.9743 26.5314 34.8986 27.1057C38.2302 28.0821 41.533 28.4841 46.473 28.4841C53.3946 28.4554 59.828 27.3642 67.3815 24.952C68.9324 24.4638 70.3972 24.1192 70.6269 24.2053C70.9141 24.3202 69.9089 25.153 67.8123 26.5601C66.0316 27.7949 62.4416 30.3507 59.828 32.2747C53.4808 36.9842 50.6662 38.7646 45.8985 41.2055C35.7602 46.3171 26.0814 47.8391 17.9535 45.6279C12.2955 44.0772 7.29816 40.2005 4.97179 35.5484C3.76552 33.1936 3.24855 30.9824 3.24855 28.2544C3.24855 24.1766 4.48355 21.1614 7.18329 18.6056C8.84908 17.0262 11.7786 15.5042 13.6167 15.2745L14.7655 15.1022L14.0475 16.1934C12.2668 18.8066 13.0997 22.0803 15.9143 23.5161C19.3321 25.2678 23.3529 22.7982 23.3529 18.9502C23.3529 15.217 19.1597 12.5177 14.1049 13.0059C7.49921 13.6089 1.8987 18.4907 0.347778 24.952C0.146744 25.8135 -0.025589 27.7088 0.00314331 29.1159C0.0605774 38.3913 6.52271 46.3745 16.259 49.1887C25.2485 51.802 36.3921 50.0502 48.1962 44.1921C53.6531 41.4927 56.6975 39.5974 64.3084 34.1987C67.4677 31.9875 71.6896 29.1159 73.7 27.8236C76.9742 25.7273 77.606 25.4401 79.3005 25.2104C81.5982 24.8945 81.9428 24.7797 81.9428 24.3489C81.9428 24.1192 81.5694 24.0905 80.7078 24.2053C79.042 24.4925 79.358 24.2628 84.384 21.4773C89.8122 18.4907 92.6843 17.1411 93.2587 17.3708C93.5746 17.4857 92.1386 18.5769 88.8932 20.7593C76.3997 29.0584 70.1961 34.9166 66.922 41.4927C62.9011 49.5333 63.9638 56.8274 69.6217 60.1872C70.4833 60.6754 71.4598 61.1636 71.8332 61.2784C72.465 61.4507 72.4938 61.422 72.3214 60.4744C72.0342 58.9811 73.0107 57.373 75.1073 55.7361C79.0995 52.6922 79.559 52.0604 78.9272 50.7682C78.6974 50.3661 77.7783 49.5333 76.8593 48.9303C72.465 46.0299 71.029 44.1059 71.029 41.1481C71.029 39.54 71.4024 37.7596 71.8906 37.2139C71.9768 37.0991 72.0055 37.7596 71.9481 38.7072C71.7757 40.9758 72.4363 42.3542 74.0159 43.0721C77.1178 44.4792 80.3057 42.8424 82.1151 38.9082C82.747 37.5298 82.9193 36.5822 83.0916 33.8254C83.2352 31.9588 83.4937 29.9486 83.666 29.3456C84.5276 26.675 87.1987 23.7459 92.2535 19.8404L94.8096 17.859L96.6477 18.2323C97.6242 18.462 99.4049 18.6343 100.525 18.6343H102.622L101.731 20.0127C99.5485 23.4587 98.8879 29.2594 100.295 32.9352C101.616 36.3812 104.833 39.0231 107.82 39.0231C110.807 39.0231 113.191 37.7308 114.454 35.4048C115.919 32.7054 115.776 29.8912 114.081 27.9672C112.702 26.3878 110.29 26.2442 109.371 27.6513C108.509 28.9436 109.601 30.724 110.635 29.6902C111.18 29.1733 110.721 28.2257 109.974 28.2831C109.285 28.3405 109.428 27.9098 110.233 27.3642C111.669 26.4452 113.736 27.5365 114.569 29.6902C115.431 32.0162 114.569 35.2899 112.702 36.6396C109.945 38.6785 105.379 38.0754 103.34 35.4335C101.128 32.5044 100.726 27.7375 102.363 23.4013C103.282 20.9316 105.092 18.3472 106.154 17.9738C106.671 17.7728 108.021 17.1411 109.199 16.5667C110.376 15.9637 111.381 15.4755 111.41 15.4755C111.467 15.4755 111.439 15.6765 111.324 15.9062C111.18 16.3657 111.554 18.8066 112.128 20.9891C112.645 22.9992 115.316 24.0905 117.298 23.0854C117.843 22.7982 118.561 22.3388 118.906 22.0229L119.538 21.4485L120.687 22.3675C122.812 24.0905 125.627 23.6884 126.804 21.506C127.379 20.4722 127.379 18.3472 126.862 15.7627L126.661 14.7863L127.637 15.4468C129.159 16.4519 131.888 17.6292 133.984 18.2036C136.081 18.7492 136.454 19.1225 138.063 22.31C140.906 27.9385 139.556 35.2038 135.277 37.2714C133.783 37.9893 131.227 38.0754 129.676 37.415C126.287 36.0078 124.909 31.7004 126.919 28.6277C127.838 27.1919 129.504 26.6462 130.653 27.3929L131.4 27.8811L130.739 28.2257C129.935 28.599 129.849 29.4892 130.538 29.9199C131.486 30.523 132.261 29.0871 131.744 27.68C131.428 26.8473 130.107 26.3878 128.958 26.7037C126.661 27.3354 125.598 28.9436 125.598 31.8439C125.598 34.7156 126.919 36.8981 129.475 38.2477C131.026 39.0805 134.444 39.1092 135.995 38.3339C139.326 36.697 141.394 32.8203 141.394 28.2544C141.394 25.3253 140.533 22.4249 138.608 18.8928C138.551 18.8066 139.298 18.6343 140.245 18.5482C141.222 18.4333 142.802 18.1461 143.749 17.9164C145.789 17.3708 145.415 17.2272 149.666 20.6158C153.256 23.5161 155.755 26.1868 156.76 28.2257C157.42 29.5753 157.564 30.3507 157.765 33.5382C157.937 36.5535 158.11 37.5585 158.684 38.7934C160.493 42.7275 163.911 44.5367 166.869 43.1296C168.478 42.3829 169.023 41.263 168.909 38.8221C168.822 36.9555 168.851 36.8119 169.196 37.4437C169.397 37.8457 169.713 38.8508 169.856 39.7123C170.488 42.785 169.138 45.3407 165.577 47.8391C160.752 51.1989 160.666 51.8881 164.802 54.9321C167.645 57.0571 168.535 58.2632 168.535 60.0436C168.535 60.7902 168.621 61.422 168.708 61.422C168.794 61.422 169.655 61.02 170.603 60.5605ZM212.277 48.758C206.561 48.1549 200.185 46.1448 193.867 43.0147C189.042 40.6312 185.193 38.2765 179.506 34.1987C176.778 32.246 172.728 29.403 170.459 27.8811C167.875 26.1581 166.467 25.0381 166.64 24.8658C166.984 24.5212 173.446 28.7425 179.65 33.3372C185.882 37.9319 189.559 40.2292 194.384 42.6127C203.029 46.8627 210.898 48.6431 218.021 47.9252C226.953 47.0063 233.759 42.7562 237.062 36.0078C238.527 32.9926 239.159 30.0635 238.929 27.2206C238.585 23.1428 237.235 20.2712 234.391 17.6292C232.467 15.8488 232.898 15.8775 234.994 17.658C237.981 20.2424 239.647 24.1766 239.676 28.6851C239.733 40.2005 230.141 48.6718 216.585 49.0452C215.838 49.0452 213.885 48.9303 212.277 48.758ZM18.5566 48.3272C11.6924 46.9201 5.97701 42.785 3.27728 37.2714C1.75508 34.1413 1.23811 32.0162 1.23811 28.8287C1.23811 23.6884 3.24857 19.4671 6.86736 16.94C8.24594 15.9924 8.24594 15.9924 6.49399 17.6005C2.3008 21.4485 0.864746 27.8523 2.84647 33.7679C4.51225 38.7359 8.76291 43.2731 14.0475 45.6566C22.8934 49.6769 34.6114 48.5857 46.473 42.6988C51.0682 40.4015 54.3998 38.3052 60.2588 34.0551C67.9846 28.398 72.9246 25.1817 73.6426 25.2966C74.1021 25.354 73.3554 25.9858 70.7131 27.7375C68.7601 29.0297 64.9403 31.6716 62.2118 33.6244C52.9064 40.2866 46.1283 44.0198 39.2067 46.2884C30.9064 49.0164 24.8464 49.6195 18.5566 48.3272ZM134.214 38.1903C136.368 37.5298 138.436 35.6345 139.413 33.4521C141.078 29.6328 140.504 24.2628 137.948 20.2424C137.46 19.4671 137.115 18.8066 137.172 18.7205C137.345 18.5769 138.838 21.0465 139.441 22.5111C141.509 27.4216 140.906 32.8777 137.948 36.2663C137 37.3288 134.99 38.4487 134.071 38.42C133.611 38.3913 133.64 38.3626 134.214 38.1903ZM104.259 37.415C103.139 36.6683 100.898 33.5382 100.898 32.7342C100.898 32.4757 101.3 32.9926 101.789 33.8541C103.139 36.295 104.402 37.4437 106.642 38.219C107.217 38.3913 107.159 38.42 106.355 38.3052C105.81 38.219 104.862 37.817 104.259 37.415ZM100.697 31.4993C100.783 31.2696 100.87 31.3558 100.87 31.6716C100.898 31.9875 100.812 32.1598 100.726 32.045C100.64 31.9588 100.611 31.7004 100.697 31.4993ZM100.41 27.1631C100.468 26.5027 100.496 27.1344 100.496 28.5415C100.496 29.9774 100.468 30.4943 100.41 29.7476C100.353 29.001 100.353 27.8236 100.41 27.1631ZM100.755 24.6648C101.013 23.4874 101.243 23.7172 101.013 24.9232C100.898 25.4114 100.755 25.7847 100.697 25.6986C100.611 25.6412 100.64 25.153 100.755 24.6648ZM163.825 23.631C161.815 22.4249 161.326 21.908 162.446 22.1952C163.624 22.4823 166.467 24.2915 166.036 24.4638C165.835 24.5499 165.634 24.6361 165.606 24.6361C165.577 24.6648 164.773 24.2053 163.825 23.631ZM158.483 24.2915C157.047 24.0043 155.927 23.3726 151.59 20.5009C145.99 16.7677 145.501 15.9062 150.24 18.2036C153.198 19.6107 161.786 24.3489 161.786 24.5499C161.786 24.7509 160.235 24.6361 158.483 24.2915ZM75.452 23.7746C76.2274 23.2864 77.5199 22.5398 78.324 22.0803C83.982 18.9789 85.3318 18.261 87.2848 17.3421C89.9846 16.1073 90.7887 16.0211 88.4049 17.2559C85.8775 18.5195 79.1856 22.31 77.2039 23.5736C76.2561 24.1766 75.1648 24.6648 74.7627 24.6648C74.1308 24.6648 74.2457 24.5212 75.452 23.7746ZM71.2013 23.8607C71.1152 23.7172 71.5173 23.4587 72.1204 23.2864L73.183 22.9705L72.465 23.5161C71.6609 24.1479 71.4311 24.2053 71.2013 23.8607ZM167.961 23.229C167.875 23.0567 167.989 23.028 168.219 23.1141C168.736 23.3151 168.822 23.5161 168.42 23.5161C168.248 23.5161 168.047 23.4013 167.961 23.229ZM101.875 21.6496C102.708 19.8404 103.77 18.2323 103.971 18.462C104.058 18.5482 103.828 19.0364 103.426 19.5532C103.024 20.0701 102.392 21.1614 102.018 21.9942C101.645 22.8269 101.3 23.43 101.243 23.3726C101.186 23.3151 101.473 22.5398 101.875 21.6496ZM123.875 21.9942C123.875 21.4485 125.225 20.2712 125.569 20.5009C126.029 20.7593 125.971 21.2475 125.397 21.8506C124.851 22.4536 123.875 22.5398 123.875 21.9942ZM115.546 22.0803C115.546 21.7644 117.068 20.9316 117.7 20.9316C118.246 20.9316 118.246 21.1901 117.642 21.8506C117.154 22.3962 115.546 22.5685 115.546 22.0803ZM66.8932 19.984C66.4337 19.0938 66.1178 18.2897 66.1752 18.2323C66.2327 18.1749 67.2953 18.7205 68.5303 19.4958L70.7418 20.8742L69.6791 21.305C69.076 21.5634 68.3867 21.7357 68.157 21.707C67.9272 21.6783 67.3528 20.9029 66.8932 19.984ZM159.488 20.6158C158.799 20.0701 158.799 20.0701 159.976 20.6445C160.666 20.9604 161.211 21.2762 161.211 21.3337C161.211 21.5921 160.149 21.1614 159.488 20.6158ZM170.144 20.9029C169.655 20.7306 169.253 20.5009 169.253 20.4147C169.253 20.2999 170.029 19.7255 170.976 19.1512C171.924 18.5769 172.7 18.2323 172.7 18.4046C172.7 18.9215 171.522 21.2188 171.292 21.2188C171.149 21.2188 170.661 21.0752 170.144 20.9029ZM68.0708 18.8353C66.3476 17.7728 66.1465 17.5431 66.2901 16.9113C67.123 13.3792 72.8958 11.7998 77.2614 13.9248C78.7836 14.6427 80.6791 16.5667 80.277 16.94C80.1621 17.0549 78.1517 17.9451 75.7966 18.8928C70.9716 20.8168 71.3162 20.8455 68.0708 18.8353ZM163.71 18.3184C161.298 17.3421 159.23 16.4519 159.086 16.3083C158.713 15.9637 160.35 14.5279 161.987 13.7238C163.05 13.2069 163.882 13.0633 165.663 13.0633C168.449 13.0346 170.287 13.6664 171.522 15.0735C172.757 16.4806 172.958 17.3995 172.097 18.0026C170.833 18.9215 168.822 20.0701 168.449 20.0701C168.248 20.0701 166.123 19.2661 163.71 18.3184ZM150.154 15.9924C149.723 15.5904 150.7 15.9924 154.204 17.6292C155.956 18.462 157.449 19.3235 157.535 19.5532C157.708 19.9266 150.872 16.6529 150.154 15.9924ZM137.172 17.1411C136.426 16.4519 136.339 16.1647 136.856 16.136C137.057 16.1073 138.522 16.0211 140.131 15.9062C142.629 15.7052 143.118 15.7627 143.807 16.1934C144.209 16.4806 144.525 16.7677 144.439 16.8252C144.266 17.0262 139.987 17.7154 138.838 17.7441C138.178 17.7728 137.603 17.5718 137.172 17.1411ZM96.3318 17.1985C96.0733 17.0549 96.2456 16.8252 97.0211 16.337C97.9976 15.7339 98.1986 15.7052 99.9793 15.9924C101.042 16.1647 102.162 16.2796 102.478 16.1934C102.794 16.136 103.483 16.0211 104.029 15.935L104.977 15.7627L104.172 16.5954C103.713 17.0549 102.938 17.4857 102.478 17.5718C101.358 17.7441 96.8488 17.4857 96.3318 17.1985ZM135.363 16.7677C134.99 16.3657 134.76 16.0498 134.846 16.0498C134.903 16.0498 135.277 16.3657 135.65 16.7677C136.024 17.1698 136.253 17.4857 136.167 17.4857C136.11 17.4857 135.736 17.1698 135.363 16.7677ZM172.585 15.6478C170.316 11.0244 163.279 10.3352 159.086 14.3843L157.621 15.7914L155.64 15.016C153.715 14.2694 153.687 14.2407 154.29 13.7812C154.606 13.5228 156.875 12.3167 159.287 11.1106C166.984 7.17641 171.694 6.65951 175.227 9.35887L176.204 10.1055L175.715 9.33015C174.796 7.95176 172.872 7.06154 170.431 6.91796C167.501 6.74566 165.29 7.52101 158.282 11.0819L152.882 13.8387L151.734 13.4653C151.102 13.2643 150.671 13.0059 150.786 12.891C151.217 12.5464 160.235 8.32507 162.36 7.49229C167.214 5.56828 172.039 5.02267 174.768 6.08518C178.788 7.63587 178.932 11.4839 175.112 15.4755C174.222 16.4231 173.446 17.1985 173.418 17.1985C173.36 17.1985 173.016 16.5093 172.585 15.6478ZM129.102 15.4468C127.494 14.6714 126.172 13.8961 126.172 13.7525C126.172 13.6089 125.454 12.7187 124.564 11.7711C123.674 10.7947 123.099 10.0193 123.272 10.0193C123.444 10.0193 123.731 10.2778 123.932 10.5937C124.133 10.9096 124.392 11.168 124.535 11.168C124.65 11.168 124.679 11.0244 124.564 10.8521C124.047 9.99063 127.091 11.4839 128.527 12.7761C129.131 13.3218 130.337 14.1545 131.199 14.6427C132.089 15.1309 132.749 15.5904 132.692 15.6478C132.319 16.0211 126.546 12.7474 125.627 11.6562C125.426 11.3977 125.081 11.168 124.909 11.168C124.736 11.1967 125.225 11.7711 126.029 12.4603C127.58 13.8674 130.394 15.4181 132.692 16.1934C133.525 16.4519 134.214 16.7965 134.214 16.9688C134.214 17.5144 132.089 16.8826 129.102 15.4468ZM105.206 16.7677C105.407 16.538 105.695 16.337 105.838 16.337C106.011 16.337 105.982 16.538 105.781 16.7677C105.58 16.9975 105.293 17.1985 105.149 17.1985C104.977 17.1985 105.005 16.9975 105.206 16.7677ZM63.4755 15.1883C60.0865 11.3977 60.1727 8.03791 63.7053 6.2862C64.969 5.68315 65.4859 5.56828 67.8698 5.62571C72.3214 5.68315 75.3084 6.65951 84.8149 11.2542L89.2378 13.4079L88.1464 13.8674L87.0838 14.2981L80.8514 11.1967C77.405 9.47373 73.7287 7.80817 72.6374 7.46357C70.512 6.80309 68.0708 6.68823 66.3188 7.17641C65.2562 7.46357 62.7001 9.53117 62.7001 10.0768C62.7001 10.2491 63.217 9.90448 63.8202 9.35887C64.452 8.78454 65.4572 8.21021 66.0604 8.03791C67.7549 7.54972 70.6844 7.66459 73.0394 8.29636C75.136 8.87069 86.3658 14.2981 86.0786 14.614C85.9924 14.7001 84.9297 15.1596 83.7235 15.6765L81.5407 16.5667L81.0525 15.8201C79.0708 12.5464 74.1595 10.9096 70.311 12.2018C68.5878 12.8049 66.2327 14.9873 65.9742 16.2796C65.7444 17.4282 65.3136 17.2272 63.4755 15.1883ZM94.0054 16.739C94.0054 16.538 96.0446 15.7052 96.2169 15.8775C96.3031 15.935 95.9871 16.1934 95.5276 16.4519C94.6947 16.9113 94.0054 17.0262 94.0054 16.739ZM144.697 16.0498C143.721 15.3893 143.807 15.3319 145.099 15.7914C145.587 15.9637 145.99 16.2221 145.99 16.3657C145.99 16.7677 145.645 16.6816 144.697 16.0498ZM107.504 16.1647C107.734 15.935 108.768 15.217 109.83 14.5853C110.893 13.9822 111.87 13.3218 111.956 13.1782C112.415 12.4603 112.588 13.0059 112.157 13.7812C111.812 14.3556 111.037 14.9586 109.658 15.6191C107.418 16.7103 106.958 16.8539 107.504 16.1647ZM134.042 13.9822C131.945 12.2592 131.917 12.2018 132.433 11.6849C132.95 11.168 133.037 11.168 135.593 12.0582C137.057 12.5751 138.235 13.1495 138.235 13.3505C138.235 13.5515 138.551 14.0971 138.953 14.5566C139.786 15.5616 139.642 15.6765 137.431 15.7339C136.339 15.7627 135.995 15.5904 134.042 13.9822ZM106.499 15.4755C106.585 15.3319 106.958 15.0447 107.303 14.8724C107.906 14.5853 107.906 14.614 107.246 15.1596C106.528 15.8201 106.212 15.935 106.499 15.4755ZM100.123 15.5904L99.2613 15.4181L100.008 14.614C100.468 14.1545 101.846 13.4079 103.483 12.7761L106.212 11.7423L107.246 12.2592L108.28 12.7761L106.987 13.9248C105.235 15.4181 102.564 16.0785 100.123 15.5904ZM141.681 15.1883C141.681 15.0447 141.796 14.9012 141.969 14.9012C142.112 14.9012 142.256 15.0447 142.256 15.1883C142.256 15.3606 142.112 15.4755 141.969 15.4755C141.796 15.4755 141.681 15.3606 141.681 15.1883ZM139.757 14.5566C138.522 13.4079 138.953 13.1207 140.504 14.0684C141.279 14.5279 141.394 14.7289 141.078 14.9299C140.533 15.2745 140.504 15.2745 139.757 14.5566ZM132.031 13.8961C131.17 13.1782 130.538 12.6038 130.624 12.6038C130.911 12.6038 133.209 14.2407 133.611 14.7289C134.3 15.5616 133.668 15.217 132.031 13.8961ZM110.663 12.3454C110.663 12.0869 113.851 10.3065 114.282 10.3065C114.426 10.3065 113.823 10.7085 112.961 11.1967C112.099 11.6562 111.266 12.1731 111.123 12.3167C110.778 12.6613 110.663 12.6613 110.663 12.3454ZM107.533 11.7711C107.217 11.57 107.59 11.369 108.825 11.0244C109.744 10.7373 110.606 10.4788 110.721 10.3927C110.864 10.3352 110.951 10.4501 110.951 10.6798C110.951 11.1393 109.371 12.0295 108.509 12.0295C108.193 12.0295 107.763 11.9146 107.533 11.7711ZM129.676 10.8521C128.93 10.3927 128.585 10.0481 128.901 10.1342C129.217 10.2204 130.078 10.4214 130.854 10.6224C131.945 10.8808 132.146 11.0244 131.888 11.3403C131.428 11.9146 131.227 11.8572 129.676 10.8521ZM128.614 11.4552C128.527 11.2829 128.642 11.2542 128.872 11.3403C129.389 11.5413 129.475 11.7423 129.073 11.7423C128.901 11.7423 128.7 11.6275 128.614 11.4552ZM93.2587 10.1629C93.0002 8.81325 93.3161 8.09534 94.3501 7.75074C95.5851 7.31999 97.1072 7.77946 98.2561 8.8994C98.773 9.4163 99.1464 9.87577 99.089 9.9332C99.0315 9.99063 97.8827 10.3927 96.5616 10.8521C93.8905 11.7423 93.5459 11.6849 93.2587 10.1629ZM142.543 10.2778C141.366 9.90448 140.332 9.5886 140.274 9.53117C140.188 9.47373 140.447 9.12914 140.82 8.7271C142.17 7.29128 144.869 7.14769 145.473 8.46865C145.846 9.27272 145.53 11.2542 145.042 11.0819C144.841 11.0244 143.721 10.6511 142.543 10.2778ZM107.648 7.72202C107.734 7.57844 108.107 7.43486 108.452 7.46357C109.055 7.46357 109.055 7.49229 108.509 7.72202C107.705 8.06662 107.447 8.06662 107.648 7.72202ZM118.877 7.14769C118.447 7.14769 118.418 7.06154 118.705 6.71694C119.193 6.1139 119.682 6.17133 120.313 6.91796C120.859 7.52101 120.859 7.52101 120.141 7.34871C119.739 7.23384 119.193 7.14769 118.877 7.14769ZM111.525 7.06154C111.525 6.54464 112.904 5.13753 113.736 4.82165C114.512 4.53449 116.407 4.47705 116.407 4.7355C116.407 4.85037 116.12 5.39598 115.776 5.9416C115.144 6.94668 115.144 6.94668 114.742 6.34363C114.512 5.99903 114.196 5.71186 114.024 5.71186C113.88 5.71186 113.937 5.9416 114.196 6.22876C114.914 7.00411 114.828 7.11898 113.306 7.23384C112.559 7.29128 111.87 7.34871 111.726 7.37743C111.611 7.40614 111.525 7.26256 111.525 7.06154ZM124.162 6.94668C124.162 6.86053 124.392 6.48721 124.65 6.17133C125.081 5.62571 125.052 5.65443 124.449 6.20005L123.76 6.83181L123.099 5.9416C122.726 5.4247 122.439 4.9078 122.439 4.79293C122.439 4.41962 124.392 4.53449 125.397 4.96523C126.201 5.28112 127.321 6.48721 127.321 7.00411C127.321 7.09026 126.603 7.14769 125.742 7.14769C124.88 7.14769 124.162 7.06154 124.162 6.94668ZM120.572 6.48721L119.796 5.85545L120.83 5.36727L121.836 4.87908L122.582 5.82673C122.984 6.34363 123.3 6.86053 123.3 6.94668C123.3 7.43486 121.261 7.09026 120.572 6.48721ZM115.546 6.94668C115.546 6.80309 115.919 6.2862 116.35 5.79801C117.125 4.87908 117.125 4.87908 118.073 5.33855L119.021 5.79801L118.389 6.4585C117.93 6.94668 117.441 7.14769 116.637 7.14769C116.034 7.14769 115.546 7.06154 115.546 6.94668Z" fill="#4B4B4B"/>
<path d="M125.081 0.916183C124.909 0.85875 124.564 0.85875 124.363 0.916183C124.191 1.00233 124.334 1.05976 124.737 1.05976C125.139 1.05976 125.282 1.00233 125.081 0.916183Z" fill="#4B4B4B"/>
<path d="M114.454 0.916212C114.253 0.830065 113.995 0.858781 113.908 0.944928C113.794 1.03108 113.966 1.11722 114.282 1.08851C114.598 1.08851 114.684 1.00236 114.454 0.916212Z" fill="#4B4B4B"/>
</svg>
