<svg width="21" height="21" viewBox="0 0 21 21" fill="none" xmlns="http://www.w3.org/2000/svg">
<g clip-path="url(#clip0)">
<path d="M3.97622 11.6243C3.08063 10.8659 2.20598 10.1731 1.38679 9.41971C0.310146 8.4296 -0.220269 7.24078 0.0859136 5.7213C0.318721 4.56601 0.749471 3.56047 1.84121 3.03109C2.53455 2.69487 3.29161 2.41691 4.04872 2.30177C5.49763 2.08146 6.9715 2.02561 8.43571 2.16035C10.3012 2.33195 11.9375 3.09399 13.3916 4.25668C13.5713 4.40031 13.6914 4.61862 13.8209 4.77963C14.4517 4.76102 15.0785 4.71617 15.7041 4.72918C17.4257 4.76498 18.6561 5.60332 19.4476 7.11073C19.806 7.79341 19.9975 8.53425 20.0532 9.29824C20.1047 10.005 19.8581 10.6503 19.5172 11.2614C18.8563 12.4461 18.0075 13.4722 16.9281 14.2948C16.074 14.9457 15.2512 15.63 14.3152 16.1815C12.5665 17.2119 10.6856 17.7779 8.6925 18.0057C7.92003 18.094 7.1374 18.1096 6.35877 18.1237C5.26421 18.1435 4.40194 17.7156 3.91209 16.6968C3.62336 16.0963 3.32078 15.4917 3.12987 14.8572C2.82292 13.8369 3.00602 12.869 3.67199 12.0141C3.77443 11.8826 3.87702 11.7514 3.97622 11.6243V11.6243ZM17.4115 7.07005C17.4088 7.2541 17.3186 7.46989 17.6502 7.59177C17.6358 7.3729 17.624 7.1946 17.6102 6.98571C17.494 7.04017 17.4461 7.06264 17.3982 7.08512C17.4233 6.88306 17.5266 6.65705 17.2405 6.53563C17.058 7.1097 17.058 7.1097 17.2177 7.38884C17.2865 7.27575 17.3489 7.17311 17.4115 7.07005ZM14.8388 6.61004C14.8334 6.50745 14.8279 6.4049 14.8169 6.19478C14.6267 6.34052 14.5073 6.43201 14.388 6.52349C14.2907 6.30051 14.3813 6.17328 14.5975 6.10828C15.4136 5.86272 16.2452 5.81541 17.0644 6.03834C17.9144 6.26965 18.2016 6.7167 18.1671 7.60174C18.1614 7.74851 18.1404 7.89775 18.1031 8.03969C17.9615 8.57786 17.8031 9.11167 17.6646 9.65056C17.52 10.2129 17.2094 10.6701 16.7745 11.0346C16.32 11.4154 15.8491 11.7787 15.3665 12.1232C13.9551 13.1305 12.3796 13.8487 10.8429 14.6283C9.57613 15.2709 8.21358 15.6506 6.78465 15.7116C6.11693 15.7402 5.45044 15.6831 4.83069 15.3812C4.07352 15.0124 3.81417 14.3938 4.10094 13.5638C4.2479 13.9602 4.3853 14.3309 4.52271 14.7016C4.55074 14.6943 4.57878 14.687 4.60676 14.6797C4.52836 14.1684 4.45 13.6572 4.37159 13.1458C4.71238 13.7251 4.67418 14.4189 5.03838 14.9948C5.09887 14.8569 5.12978 14.7187 5.10837 14.5891C5.06909 14.3517 4.98611 14.1217 4.94452 13.8845C4.88039 13.5188 4.83582 13.1497 4.78298 12.7822C4.82227 12.7752 4.86155 12.7682 4.90083 12.7612C5.01702 13.2312 5.13322 13.7012 5.27176 14.2616C5.66348 13.6039 5.32778 13.0374 5.38729 12.4838C5.03803 12.2669 4.7112 12.0639 4.36317 11.8477C3.8267 12.4184 3.47292 13.0243 3.43497 13.8219C3.3884 14.801 3.8667 15.5686 4.32158 16.3556C4.40625 16.502 4.52753 16.6271 4.6481 16.7831C4.69811 16.661 4.72332 16.5995 4.75957 16.511C4.96265 16.9366 5.06144 17.4386 5.69701 17.3882C5.57506 17.0595 5.46344 16.7586 5.35181 16.4576C5.97537 17.4898 5.97537 17.4898 6.32473 17.4394C6.30224 17.2964 6.2798 17.1534 6.25731 17.0104L6.24483 17.0213C6.31841 17.1217 6.40704 17.2147 6.46219 17.3244C6.55441 17.5081 6.70917 17.547 6.88215 17.5216C7.32143 17.4571 7.76676 17.4762 8.2256 17.4331C8.12162 17.1629 8.02611 16.9148 7.93061 16.6667C8.07222 16.7633 8.14272 16.8872 8.20121 17.0167C8.32757 17.2965 8.47658 17.4569 8.84099 17.3637C9.79142 17.1205 10.7906 17.0225 11.7027 16.6841C13.7578 15.9214 15.6004 14.7794 17.1722 13.2265C17.8794 12.5279 18.4718 11.7411 18.9337 10.8659C19.1205 10.5121 19.2767 10.1047 19.3049 9.71145C19.3858 8.58208 19.0646 7.54975 18.4137 6.61364C17.9782 5.98748 17.388 5.59165 16.6815 5.37186C15.738 5.07821 14.7817 5.10439 13.8232 5.33267C12.8192 5.5718 11.9282 6.08025 10.9903 6.48009C9.33598 7.18545 7.86175 8.177 6.43205 9.24717C6.33613 9.31902 6.25274 9.40762 6.10384 9.54251C6.46439 9.71813 6.75312 9.85884 7.08672 10.0213C7.11922 9.82304 7.13935 9.70024 7.16364 9.55229C7.02228 9.56489 6.91086 9.57481 6.77284 9.5871C7.18202 8.93255 8.61789 8.07018 9.42357 7.97119C9.69587 8.58856 9.41649 9.22845 9.45859 9.87673C9.77977 9.78046 9.77068 9.5349 9.80929 9.32431C9.89833 8.83875 9.97915 8.35169 10.0633 7.86525C10.0931 7.87003 10.1229 7.87482 10.1527 7.8796C10.1076 8.40461 10.0625 8.92957 10.0097 9.54493C10.2284 9.3976 10.3596 9.30919 10.4735 9.23247C10.4877 8.70401 10.5479 8.22585 10.8072 7.78945C10.7653 8.20245 10.7235 8.61546 10.6695 9.14813C11.6311 8.50674 12.6064 8.22066 13.5801 7.92532C13.7213 7.88248 13.8279 7.72532 13.9505 7.62103C14.2857 7.74543 14.3814 7.72177 14.5018 7.45122C14.6281 7.1674 14.7381 6.87638 14.8552 6.58844C14.7964 6.88903 14.7377 7.18962 14.6537 7.61974C14.8834 7.46757 15.0174 7.37886 15.1199 7.31093C15.197 7.3478 15.2646 7.38015 15.3564 7.42412C15.4896 6.99924 15.609 6.61848 15.7368 6.21082C15.3307 6.18634 14.992 6.19056 14.8388 6.61004V6.61004ZM8.76099 10.5954C9.05357 10.3883 9.17516 10.1029 9.20987 9.74704C9.26291 9.20341 9.35636 8.66375 9.43271 8.12243C9.39544 8.10263 9.35816 8.08284 9.32088 8.06304C8.82287 8.36959 8.3248 8.67614 7.8139 8.99061C7.77097 9.36515 7.72224 9.73151 7.68953 10.0993C7.67136 10.3037 7.77723 10.3968 7.98812 10.3719C8.06745 9.91155 8.14431 9.46522 8.22123 9.01895C8.25579 9.02399 8.2904 9.02897 8.32495 9.03401C8.28701 9.5204 8.24906 10.0068 8.21107 10.4939C8.37615 10.55 8.4962 10.5991 8.62092 10.6284C8.66497 10.6388 8.72043 10.6006 8.7707 10.5846L8.76099 10.5954V10.5954ZM16.0562 8.99133C16.0457 8.78629 16.0352 8.58126 16.0238 8.35956C16.4444 8.62944 16.689 9.18186 16.577 9.59224C16.4454 10.0748 16.192 10.4662 15.7577 10.7438C14.8553 11.3206 13.9207 11.7117 12.815 11.7952C10.8298 11.9451 8.98389 11.5148 7.18382 10.7519C5.95863 10.2326 4.87746 9.47124 3.82978 8.67244C3.10805 8.12212 2.43797 7.49488 1.98288 6.68152C1.57025 5.94413 1.65595 5.1896 2.02565 4.4972C2.29866 3.98577 2.82851 3.72 3.35811 3.52052C3.39733 3.54808 3.43656 3.57564 3.47579 3.60321C3.2971 4.17172 3.11842 4.74029 2.93973 5.30881C3.52396 5.06361 3.4324 4.36812 3.91984 3.97445C3.76159 4.44099 3.62829 4.83409 3.49592 5.22442C3.77602 5.35165 3.85643 5.20848 3.9334 5.01095C4.06659 4.66922 4.22217 4.33624 4.36836 3.9996C4.4081 4.014 4.44784 4.02835 4.48759 4.04275C4.36014 4.43297 4.2327 4.82314 4.10402 5.21722C4.37508 5.32182 4.43413 5.17273 4.50977 5.0129C4.70894 4.59203 4.92229 4.17784 5.12999 3.76098C5.1627 3.77677 5.1954 3.79251 5.22811 3.8083C5.04778 4.28013 4.86745 4.75197 4.67608 5.2527C5.13353 5.33107 5.09312 4.95952 5.21825 4.77629C5.365 4.56138 5.47596 4.32194 5.60243 4.09315C5.63319 4.10857 5.66389 4.124 5.69465 4.13938C5.54795 4.51751 5.4012 4.89565 5.2545 5.27379C5.3002 5.29739 5.34595 5.321 5.39165 5.34465C5.71673 4.8219 6.04186 4.29916 6.36694 3.77636C6.4035 3.79791 6.44011 3.81946 6.47667 3.84095C6.23569 4.30929 5.99477 4.77763 5.75534 5.24298C5.80556 5.28865 5.82897 5.32737 5.85947 5.33416C5.93054 5.34995 6.00499 5.35036 6.07544 5.35674C6.27338 4.72065 6.60796 4.19373 7.0442 3.87937C6.78983 4.40386 6.56519 4.86701 6.32642 5.35931C7.65333 5.62729 8.97352 5.82693 10.2119 6.38166C10.9682 6.01674 11.7325 5.64796 12.5373 5.2597C11.9477 4.78251 11.3132 4.51551 10.6758 4.27237C10.0319 4.02675 9.36468 3.84244 8.70415 3.63016C9.51733 3.3955 12.0069 4.37979 12.6866 5.20596C12.7722 5.17957 12.8635 5.15905 12.9484 5.12306C13.0245 5.09076 13.0936 5.04155 13.1749 4.99449C13.119 4.91987 13.0893 4.87266 13.0521 4.83245C13.0017 4.77794 12.9495 4.72378 12.8913 4.67812C11.2446 3.38645 9.39395 2.67306 7.28369 2.69564C6.8936 2.69981 6.50296 2.68571 6.11354 2.70253C5.39283 2.73364 4.66396 2.72511 3.95501 2.83752C3.18845 2.9591 2.43858 3.19113 1.7568 3.59472C1.47398 3.76212 1.24964 3.97533 1.16518 4.29849C1.02454 4.8363 0.8878 5.37566 0.769137 5.91862C0.503211 7.135 0.975501 8.11853 1.82237 8.92885C2.51889 9.59538 3.28396 10.19 4.0174 10.8179C5.43786 12.0339 7.15234 12.6074 8.91262 13.0735C9.06481 12.9456 9.21213 12.8218 9.35944 12.6979C9.37546 12.716 9.39148 12.7341 9.4075 12.7522C9.30245 12.8674 9.19734 12.9827 9.08669 13.104C9.46717 13.2687 9.46691 13.2684 9.67189 13.0958C9.85304 12.9432 9.99537 12.7301 10.3658 12.6244C10.0986 12.925 9.91974 13.1261 9.70793 13.3643C10.1956 13.5379 10.3714 13.1034 10.7586 12.9764C10.6327 13.1594 10.5492 13.2807 10.4607 13.4092C10.7119 13.5972 10.9061 13.5764 11.1036 13.3534C11.3377 13.0894 11.5923 12.8433 11.844 12.5956C11.9325 12.5086 12.039 12.4398 12.1373 12.3627C12.1553 12.3866 12.1733 12.4104 12.1912 12.4343C11.8821 12.787 11.573 13.1396 11.2632 13.4931C11.4982 13.6693 11.6239 13.5421 11.7413 13.4226C12.0669 13.0912 12.3852 12.7525 12.7099 12.4203C12.8284 12.2991 12.9569 12.1878 13.0809 12.072C13.1039 12.0975 13.1269 12.123 13.15 12.1485C12.96 12.4061 12.77 12.6638 12.58 12.9214C14.195 12.2391 15.6336 11.3278 16.8211 10.0936C16.6756 9.33388 16.8907 8.53636 16.2694 7.94224C15.5213 7.97787 14.7861 8.09821 14.027 8.47943C14.3977 8.62883 14.5564 9.10035 15.0156 8.83021C14.8188 9.25864 15.2472 9.47489 15.3014 9.8628C15.4517 9.72724 15.5579 9.63133 15.6643 9.53537C15.5682 9.79059 15.472 10.0458 15.3759 10.3011C15.6435 10.0907 15.8208 9.83405 16.0427 9.62474C16.2827 9.39837 16.2903 9.20788 16.0562 8.99133V8.99133ZM5.67771 9.21616C6.76282 8.17216 8.10642 7.54194 9.42183 6.75337C9.28442 6.68548 9.22399 6.64553 9.1576 6.62439C7.4137 6.06935 5.61681 5.82132 3.79687 5.74485C3.26563 5.72253 2.73871 5.8604 2.24372 6.08457C2.63504 6.98571 4.01288 8.24493 5.67771 9.21616V9.21616ZM9.24232 10.8083C11.0624 11.2826 12.8749 11.4291 14.6819 10.8371C14.8109 9.84433 14.2624 9.29546 13.5911 8.80969C13.4109 8.67933 13.2483 8.66087 13.0273 8.72325C11.6139 9.12216 10.3952 9.87282 9.24232 10.8083V10.8083ZM5.71432 15.2224C7.45873 15.2502 9.02605 14.8319 10.6157 14.0403C10.4038 13.9612 10.3057 13.9106 10.2015 13.8882C9.84103 13.8107 9.474 13.7603 9.11775 13.6677C8.47442 13.5004 7.83782 13.3076 7.19686 13.1311C6.99938 13.0767 6.80313 13.0332 6.63974 13.2329C6.17808 13.797 5.77588 14.3867 5.71432 15.2224ZM2.09163 5.59273C2.28439 5.16811 2.43658 4.83291 2.58877 4.49766C2.61491 4.51088 2.6411 4.5241 2.66723 4.53736C2.55683 4.86114 2.44649 5.18492 2.29789 5.62071C2.49614 5.51837 2.63714 5.49348 2.66436 5.4239C2.86322 4.91571 3.03924 4.39862 3.23795 3.8409C2.25933 4.30914 1.98396 4.71046 2.09163 5.59273V5.59273ZM16.7308 6.60284C16.6897 6.84208 16.6542 7.0485 16.6187 7.25493C16.6597 7.2684 16.7006 7.28187 16.7416 7.29535C16.9998 7.07787 16.9612 6.72436 17.1073 6.40892C16.8472 6.34288 16.6393 6.29007 16.3902 6.22687C16.2878 6.59076 16.196 6.91675 16.0924 7.28496C16.6052 7.29139 16.4335 6.79471 16.7308 6.60284V6.60284ZM15.5801 7.35274C15.6219 7.36673 15.6636 7.38066 15.7054 7.39465C16.0945 7.11453 16.0837 6.65535 16.2213 6.11681C16.0209 6.21303 15.8616 6.23916 15.84 6.30843C15.7333 6.65021 15.6631 7.00345 15.5801 7.35274ZM5.52849 12.5252C5.58718 12.9059 5.62995 13.1833 5.68818 13.5608C5.93336 13.2752 6.10183 13.0789 6.29936 12.8489C6.02471 12.7336 5.82456 12.6495 5.52849 12.5252V12.5252ZM17.3769 8.95003C17.4439 8.66801 17.4933 8.4603 17.5443 8.24586C17.2927 8.13462 17.0841 8.04247 16.8046 7.91889C17.0127 8.29379 17.1758 8.58769 17.3769 8.95003V8.95003ZM7.46997 10.1686C7.51988 9.85848 7.56974 9.54843 7.62782 9.18762C7.18433 9.44162 7.14315 9.63261 7.46997 10.1686Z" fill="black"/>
<path d="M7.35186 16.3737C7.4334 16.5816 7.51489 16.7895 7.59643 16.9975C7.56505 17.0088 7.53368 17.0202 7.50226 17.0316C7.42755 16.8217 7.35279 16.6117 7.27808 16.4018C7.30262 16.3924 7.32722 16.3831 7.35186 16.3737Z" fill="black"/>
<path d="M6.77663 16.5495C6.82525 16.6516 6.87383 16.7537 6.9224 16.8557C6.90037 16.866 6.87835 16.8762 6.85632 16.8865C6.80939 16.7836 6.76251 16.6807 6.71558 16.5779C6.73596 16.5684 6.75629 16.559 6.77663 16.5495V16.5495Z" fill="black"/>
<path d="M6.25727 17.0105C6.1763 16.8876 6.09533 16.7647 6.0144 16.6417C6.05137 16.6252 6.08834 16.6087 6.12531 16.5922C6.16521 16.7352 6.20516 16.8781 6.24495 17.0212C6.24485 17.0214 6.25727 17.0105 6.25727 17.0105V17.0105Z" fill="black"/>
<path d="M14.1801 7.05493C14.1009 7.24932 14.0217 7.44377 13.9424 7.63816C14.0216 7.44377 14.1008 7.24937 14.1801 7.05493Z" fill="black"/>
<path d="M14.4027 6.49768C14.3237 6.69197 14.2446 6.88631 14.1655 7.0806C14.2446 6.88626 14.3237 6.69197 14.4027 6.49768Z" fill="black"/>
<path d="M8.77051 10.5846C8.65637 10.0758 8.7145 9.50344 9.00543 8.85938C8.97621 9.14592 8.95526 9.4336 8.91557 9.71866C8.8749 10.0107 8.81585 10.3002 8.76286 10.5931C8.76091 10.5954 8.77051 10.5846 8.77051 10.5846Z" fill="black"/>
</g>
<defs>
<clipPath id="clip0">
<rect width="20.06" height="20.0909" fill="white" transform="translate(0 0.0606079)"/>
</clipPath>
</defs>
</svg>
