<svg width="59" height="39" viewBox="0 0 59 39" fill="none" xmlns="http://www.w3.org/2000/svg">
<path d="M21.6091 12.2622H19.3899V15H19.1526V8.60156H21.1917C21.8333 8.60156 22.343 8.76709 22.721 9.09814C23.1018 9.4292 23.2922 9.87891 23.2922 10.4473C23.2922 10.8838 23.156 11.2661 22.8836 11.5942C22.614 11.9194 22.2698 12.1216 21.8508 12.2007L23.5603 14.9385V15H23.3098L21.6091 12.2622ZM19.3899 12.0249H21.407C21.8992 12.0249 22.2962 11.8755 22.5979 11.5767C22.9026 11.2778 23.0549 10.9014 23.0549 10.4473C23.0549 9.94922 22.8865 9.55664 22.5496 9.26953C22.2156 8.98242 21.7571 8.83887 21.1741 8.83887H19.3899V12.0249Z" fill="white"/>
<path d="M34.0747 21.6143C34.0747 21.1904 33.9744 20.8327 33.7739 20.541C33.578 20.2448 33.2658 19.985 32.8374 19.7617C32.4136 19.5339 31.771 19.3014 30.9097 19.0645C30.0483 18.8275 29.4012 18.5882 28.9683 18.3467C28.5399 18.1051 28.2254 17.8249 28.0249 17.5059C27.8244 17.1868 27.7241 16.7995 27.7241 16.3438C27.7241 15.6191 28.0295 15.0335 28.6401 14.5869C29.2508 14.1357 30.0461 13.9102 31.0259 13.9102C31.6639 13.9102 32.2358 14.0355 32.7417 14.2861C33.2521 14.5322 33.6463 14.8809 33.9243 15.332C34.2023 15.7786 34.3413 16.2845 34.3413 16.8496H33.9722C33.9722 16.1068 33.6987 15.4938 33.1519 15.0107C32.605 14.5231 31.8963 14.2793 31.0259 14.2793C30.1509 14.2793 29.4422 14.4753 28.8999 14.8672C28.3621 15.2546 28.0933 15.7422 28.0933 16.3301C28.0933 16.9271 28.328 17.4079 28.7974 17.7725C29.2668 18.137 30.0415 18.4606 31.1216 18.7432C32.2017 19.0212 32.9924 19.3447 33.4937 19.7139C34.1317 20.1833 34.4507 20.8122 34.4507 21.6006C34.4507 22.1019 34.3094 22.5462 34.0269 22.9336C33.7443 23.3164 33.3433 23.6126 32.8237 23.8223C32.3042 24.0319 31.7209 24.1367 31.0737 24.1367C30.3537 24.1367 29.7065 24.0182 29.1323 23.7812C28.5581 23.5397 28.1252 23.1979 27.8335 22.7559C27.5464 22.3138 27.4028 21.792 27.4028 21.1904H27.772C27.772 22.0062 28.0773 22.6396 28.688 23.0908C29.2987 23.542 30.0939 23.7676 31.0737 23.7676C31.9442 23.7676 32.6619 23.5693 33.2271 23.1729C33.7922 22.7718 34.0747 22.2523 34.0747 21.6143ZM37.0347 14.6074V16.6035H38.7163V16.9795H37.0347V22.2295C37.0347 22.7536 37.119 23.141 37.2876 23.3916C37.4608 23.6423 37.7479 23.7676 38.1489 23.7676C38.3494 23.7676 38.5933 23.7471 38.8804 23.7061L38.9419 24.0547C38.7915 24.1094 38.534 24.1367 38.1694 24.1367C37.6317 24.1367 37.2466 23.9886 37.0142 23.6924C36.7817 23.3916 36.6632 22.9199 36.6587 22.2773V16.9795H35.2915V16.6035H36.6587V14.6074H37.0347ZM39.9399 20.1582C39.9399 19.4518 40.0744 18.8184 40.3433 18.2578C40.6167 17.6927 40.9995 17.2529 41.4917 16.9385C41.9884 16.624 42.549 16.4668 43.1733 16.4668C43.7931 16.4668 44.3491 16.6195 44.8413 16.9248C45.3335 17.2301 45.7163 17.6631 45.9897 18.2236C46.2677 18.7842 46.409 19.4154 46.4136 20.1172V20.4453C46.4136 21.1562 46.2791 21.792 46.0103 22.3525C45.7414 22.9131 45.3586 23.3506 44.8618 23.665C44.3696 23.9795 43.8114 24.1367 43.187 24.1367C42.5627 24.1367 42.0021 23.9818 41.5054 23.6719C41.0132 23.362 40.6304 22.929 40.3569 22.373C40.0835 21.8125 39.9445 21.1836 39.9399 20.4863V20.1582ZM40.3091 20.4453C40.3091 21.0605 40.4299 21.6257 40.6714 22.1406C40.9175 22.651 41.257 23.0498 41.6899 23.3369C42.1274 23.624 42.6265 23.7676 43.187 23.7676C44.0301 23.7676 44.716 23.4508 45.2446 22.8174C45.7778 22.1839 46.0444 21.3682 46.0444 20.3701V20.1582C46.0444 19.5521 45.9214 18.9915 45.6753 18.4766C45.4292 17.9616 45.0874 17.5605 44.6499 17.2734C44.217 16.9818 43.7248 16.8359 43.1733 16.8359C42.3302 16.8359 41.6421 17.1572 41.1089 17.7998C40.5757 18.4424 40.3091 19.2513 40.3091 20.2266V20.4453ZM51.4722 16.8701L50.9937 16.8291C50.3647 16.8291 49.8384 17.0342 49.4146 17.4443C48.9907 17.8499 48.7127 18.4196 48.5806 19.1533V24H48.2114V16.6035H48.5806V18.1416C48.7811 17.6266 49.0819 17.2188 49.4829 16.918C49.884 16.6172 50.3875 16.4668 50.9937 16.4668C51.2078 16.4668 51.381 16.4919 51.5132 16.542L51.4722 16.8701ZM55.2866 23.4258L55.3345 23.2891L57.8911 16.6035H58.3013L54.9927 25.2852L54.8286 25.6953C54.4731 26.5566 53.8853 26.9873 53.0649 26.9873C52.8006 26.9873 52.6183 26.9622 52.5181 26.9121L52.5112 26.5635C52.6571 26.6045 52.8234 26.625 53.0103 26.625C53.3976 26.625 53.7189 26.5111 53.9741 26.2832C54.2293 26.0599 54.4504 25.693 54.6372 25.1826L55.0884 23.959L52.1421 16.6035H52.5454L55.2866 23.4258Z" fill="white"/>
<g clip-path="url(#clip0)">
<path d="M3.97622 20.6243C3.08063 19.8659 2.20598 19.173 1.38679 18.4197C0.310146 17.4296 -0.220269 16.2408 0.0859136 14.7213C0.318721 13.566 0.749471 12.5605 1.84121 12.0311C2.53455 11.6949 3.29161 11.4169 4.04872 11.3018C5.49763 11.0815 6.9715 11.0256 8.43571 11.1603C10.3012 11.332 11.9375 12.094 13.3916 13.2567C13.5713 13.4003 13.6914 13.6186 13.8209 13.7796C14.4517 13.761 15.0785 13.7162 15.7041 13.7292C17.4258 13.765 18.6561 14.6033 19.4476 16.1107C19.806 16.7934 19.9975 17.5343 20.0532 18.2982C20.1047 19.005 19.8581 19.6503 19.5172 20.2614C18.8563 21.4461 18.0075 22.4722 16.9281 23.2948C16.074 23.9457 15.2512 24.63 14.3152 25.1815C12.5665 26.2119 10.6856 26.7779 8.6925 27.0057C7.92003 27.094 7.1374 27.1096 6.35877 27.1237C5.26421 27.1435 4.40194 26.7156 3.91209 25.6968C3.62336 25.0963 3.32078 24.4917 3.12987 23.8572C2.82292 22.8369 3.00602 21.869 3.67199 21.0141C3.77443 20.8826 3.87702 20.7514 3.97622 20.6243ZM17.4115 16.07C17.4088 16.2541 17.3186 16.4699 17.6502 16.5918C17.6358 16.3729 17.624 16.1946 17.6102 15.9857C17.494 16.0402 17.4461 16.0626 17.3982 16.0851C17.4233 15.8831 17.5266 15.657 17.2405 15.5356C17.058 16.1097 17.058 16.1097 17.2177 16.3888C17.2865 16.2758 17.3489 16.1731 17.4115 16.07ZM14.8388 15.61C14.8334 15.5074 14.8279 15.4049 14.8169 15.1948C14.6267 15.3405 14.5073 15.432 14.388 15.5235C14.2907 15.3005 14.3813 15.1733 14.5975 15.1083C15.4136 14.8627 16.2452 14.8154 17.0644 15.0383C17.9144 15.2697 18.2016 15.7167 18.1671 16.6017C18.1614 16.7485 18.1404 16.8978 18.1031 17.0397C17.9615 17.5779 17.8031 18.1117 17.6646 18.6506C17.52 19.2129 17.2094 19.6701 16.7745 20.0346C16.32 20.4154 15.8491 20.7787 15.3665 21.1232C13.9551 22.1305 12.3796 22.8487 10.8429 23.6283C9.57613 24.2709 8.21358 24.6506 6.78465 24.7116C6.11693 24.7402 5.45044 24.6831 4.83069 24.3812C4.07352 24.0124 3.81417 23.3938 4.10094 22.5638C4.2479 22.9602 4.3853 23.3309 4.52271 23.7016C4.55074 23.6943 4.57878 23.687 4.60676 23.6797C4.52836 23.1684 4.45 22.6572 4.37159 22.1458C4.71238 22.7251 4.67418 23.4189 5.03838 23.9948C5.09887 23.8569 5.12978 23.7187 5.10837 23.5891C5.06909 23.3517 4.98611 23.1217 4.94452 22.8845C4.88039 22.5188 4.83582 22.1497 4.78298 21.7822C4.82227 21.7752 4.86155 21.7682 4.90083 21.7612C5.01702 22.2312 5.13322 22.7012 5.27176 23.2616C5.66348 22.6039 5.32778 22.0374 5.38729 21.4838C5.03803 21.2669 4.7112 21.0639 4.36317 20.8477C3.8267 21.4184 3.47292 22.0243 3.43497 22.8219C3.3884 23.801 3.8667 24.5686 4.32158 25.3556C4.40625 25.502 4.52753 25.6271 4.6481 25.7831C4.69811 25.661 4.72332 25.5995 4.75957 25.511C4.96265 25.9366 5.06144 26.4386 5.69701 26.3882C5.57506 26.0595 5.46344 25.7586 5.35181 25.4576C5.97537 26.4898 5.97537 26.4898 6.32473 26.4394C6.30224 26.2964 6.2798 26.1534 6.25731 26.0104L6.24483 26.0213C6.31841 26.1217 6.40704 26.2147 6.46219 26.3244C6.55441 26.5081 6.70917 26.547 6.88215 26.5216C7.32143 26.4571 7.76676 26.4762 8.2256 26.4331C8.12162 26.1629 8.02611 25.9148 7.93061 25.6667C8.07222 25.7633 8.14272 25.8872 8.20121 26.0167C8.32757 26.2965 8.47658 26.4569 8.84099 26.3637C9.79142 26.1205 10.7906 26.0225 11.7027 25.6841C13.7578 24.9214 15.6004 23.7794 17.1722 22.2265C17.8794 21.5279 18.4718 20.7411 18.9337 19.8659C19.1205 19.5121 19.2767 19.1047 19.3049 18.7114C19.3858 17.5821 19.0646 16.5498 18.4137 15.6136C17.9782 14.9875 17.388 14.5917 16.6815 14.3719C15.738 14.0782 14.7817 14.1044 13.8232 14.3327C12.8192 14.5718 11.9282 15.0803 10.9903 15.4801C9.33598 16.1854 7.86175 17.177 6.43205 18.2472C6.33613 18.319 6.25274 18.4076 6.10384 18.5425C6.46439 18.7181 6.75312 18.8588 7.08672 19.0213C7.11922 18.823 7.13935 18.7002 7.16364 18.5523C7.02228 18.5649 6.91086 18.5748 6.77284 18.5871C7.18202 17.9325 8.61789 17.0702 9.42357 16.9712C9.69587 17.5886 9.41649 18.2285 9.45859 18.8767C9.77977 18.7805 9.77068 18.5349 9.80929 18.3243C9.89833 17.8387 9.97915 17.3517 10.0633 16.8653C10.0931 16.87 10.1229 16.8748 10.1527 16.8796C10.1076 17.4046 10.0625 17.9296 10.0097 18.5449C10.2284 18.3976 10.3596 18.3092 10.4735 18.2325C10.4877 17.704 10.5479 17.2259 10.8072 16.7894C10.7653 17.2025 10.7235 17.6155 10.6695 18.1481C11.6311 17.5067 12.6064 17.2207 13.5801 16.9253C13.7213 16.8825 13.8279 16.7253 13.9505 16.621C14.2857 16.7454 14.3814 16.7218 14.5018 16.4512C14.6281 16.1674 14.7381 15.8764 14.8552 15.5884C14.7964 15.889 14.7377 16.1896 14.6537 16.6197C14.8834 16.4676 15.0174 16.3789 15.1199 16.3109C15.197 16.3478 15.2646 16.3801 15.3564 16.4241C15.4896 15.9992 15.609 15.6185 15.7368 15.2108C15.3307 15.1863 14.992 15.1906 14.8388 15.61ZM8.76099 19.5954C9.05357 19.3883 9.17516 19.1029 9.20987 18.747C9.26291 18.2034 9.35636 17.6637 9.43271 17.1224C9.39544 17.1026 9.35816 17.0828 9.32088 17.063C8.82287 17.3696 8.3248 17.6761 7.8139 17.9906C7.77097 18.3651 7.72224 18.7315 7.68953 19.0993C7.67136 19.3037 7.77723 19.3968 7.98812 19.3719C8.06745 18.9115 8.14431 18.4652 8.22123 18.0189C8.25579 18.024 8.2904 18.029 8.32495 18.034C8.28701 18.5204 8.24906 19.0068 8.21107 19.4939C8.37615 19.55 8.4962 19.5991 8.62092 19.6284C8.66497 19.6388 8.72043 19.6006 8.7707 19.5846L8.76099 19.5954ZM16.0562 17.9913C16.0457 17.7863 16.0352 17.5813 16.0238 17.3596C16.4444 17.6294 16.689 18.1819 16.577 18.5922C16.4454 19.0748 16.192 19.4662 15.7577 19.7438C14.8553 20.3206 13.9207 20.7117 12.815 20.7952C10.8298 20.9451 8.98389 20.5148 7.18382 19.7519C5.95863 19.2326 4.87746 18.4712 3.82978 17.6724C3.10805 17.1221 2.43797 16.4949 1.98288 15.6815C1.57025 14.9441 1.65595 14.1896 2.02565 13.4972C2.29866 12.9858 2.82851 12.72 3.35811 12.5205C3.39733 12.5481 3.43656 12.5756 3.47579 12.6032C3.2971 13.1717 3.11842 13.7403 2.93973 14.3088C3.52396 14.0636 3.4324 13.3681 3.91984 12.9745C3.76159 13.441 3.62829 13.8341 3.49592 14.2244C3.77602 14.3516 3.85643 14.2085 3.9334 14.0109C4.06659 13.6692 4.22217 13.3362 4.36836 12.9996C4.4081 13.014 4.44784 13.0283 4.48759 13.0427C4.36014 13.433 4.2327 13.8231 4.10402 14.2172C4.37508 14.3218 4.43413 14.1727 4.50977 14.0129C4.70894 13.592 4.92229 13.1778 5.12999 12.761C5.1627 12.7768 5.1954 12.7925 5.22811 12.8083C5.04778 13.2801 4.86745 13.752 4.67608 14.2527C5.13353 14.3311 5.09312 13.9595 5.21825 13.7763C5.365 13.5614 5.47596 13.3219 5.60243 13.0931C5.63319 13.1086 5.66389 13.124 5.69465 13.1394C5.54795 13.5175 5.4012 13.8956 5.2545 14.2738C5.3002 14.2974 5.34595 14.321 5.39165 14.3447C5.71673 13.8219 6.04186 13.2992 6.36694 12.7764C6.4035 12.7979 6.44011 12.8195 6.47667 12.841C6.23569 13.3093 5.99477 13.7776 5.75534 14.243C5.80556 14.2886 5.82897 14.3274 5.85948 14.3342C5.93054 14.3499 6.00499 14.3504 6.07544 14.3567C6.27338 13.7206 6.60796 13.1937 7.04421 12.8794C6.78983 13.4039 6.56519 13.867 6.32642 14.3593C7.65333 14.6273 8.97352 14.8269 10.2119 15.3817C10.9682 15.0167 11.7325 14.648 12.5373 14.2597C11.9477 13.7825 11.3132 13.5155 10.6758 13.2724C10.0319 13.0268 9.36468 12.8424 8.70415 12.6302C9.51733 12.3955 12.0069 13.3798 12.6866 14.206C12.7722 14.1796 12.8635 14.1591 12.9484 14.1231C13.0245 14.0908 13.0936 14.0415 13.1749 13.9945C13.119 13.9199 13.0893 13.8727 13.0521 13.8324C13.0017 13.7779 12.9495 13.7238 12.8913 13.6781C11.2446 12.3864 9.39395 11.6731 7.28369 11.6956C6.8936 11.6998 6.50296 11.6857 6.11354 11.7025C5.39283 11.7336 4.66396 11.7251 3.95501 11.8375C3.18845 11.9591 2.43858 12.1911 1.7568 12.5947C1.47398 12.7621 1.24964 12.9753 1.16518 13.2985C1.02454 13.8363 0.8878 14.3757 0.769137 14.9186C0.503211 16.135 0.975501 17.1185 1.82237 17.9288C2.51889 18.5954 3.28396 19.19 4.0174 19.8179C5.43786 21.0339 7.15234 21.6074 8.91262 22.0735C9.06481 21.9456 9.21213 21.8218 9.35944 21.6979C9.37546 21.716 9.39148 21.7341 9.4075 21.7522C9.30245 21.8674 9.19734 21.9827 9.08669 22.104C9.46717 22.2687 9.46691 22.2684 9.67189 22.0958C9.85304 21.9432 9.99537 21.7301 10.3658 21.6244C10.0986 21.925 9.91974 22.1261 9.70793 22.3643C10.1956 22.5379 10.3714 22.1034 10.7586 21.9764C10.6327 22.1594 10.5492 22.2807 10.4607 22.4092C10.7119 22.5972 10.9061 22.5764 11.1036 22.3534C11.3377 22.0894 11.5923 21.8433 11.844 21.5956C11.9325 21.5086 12.039 21.4398 12.1373 21.3627C12.1553 21.3866 12.1733 21.4104 12.1912 21.4343C11.8821 21.787 11.573 22.1396 11.2632 22.4931C11.4982 22.6693 11.6239 22.5421 11.7413 22.4226C12.0669 22.0912 12.3852 21.7525 12.7099 21.4203C12.8284 21.2991 12.9569 21.1878 13.0809 21.072C13.1039 21.0975 13.1269 21.123 13.15 21.1485C12.96 21.4061 12.77 21.6638 12.58 21.9214C14.195 21.2391 15.6336 20.3278 16.8211 19.0936C16.6756 18.3339 16.8907 17.5364 16.2694 16.9422C15.5213 16.9779 14.7861 17.0982 14.027 17.4794C14.3977 17.6288 14.5564 18.1004 15.0156 17.8302C14.8188 18.2586 15.2472 18.4749 15.3014 18.8628C15.4517 18.7272 15.5579 18.6313 15.6643 18.5354C15.5682 18.7906 15.472 19.0458 15.3759 19.3011C15.6435 19.0907 15.8208 18.834 16.0427 18.6247C16.2827 18.3984 16.2903 18.2079 16.0562 17.9913ZM5.67771 18.2162C6.76282 17.1722 8.10642 16.5419 9.42183 15.7534C9.28442 15.6855 9.22399 15.6455 9.1576 15.6244C7.4137 15.0693 5.61681 14.8213 3.79687 14.7448C3.26563 14.7225 2.73871 14.8604 2.24372 15.0846C2.63504 15.9857 4.01288 17.2449 5.67771 18.2162ZM9.24232 19.8083C11.0624 20.2826 12.8749 20.4291 14.6819 19.8371C14.8109 18.8443 14.2624 18.2955 13.5911 17.8097C13.4109 17.6793 13.2483 17.6609 13.0273 17.7232C11.6139 18.1222 10.3952 18.8728 9.24232 19.8083ZM5.71432 24.2224C7.45873 24.2502 9.02605 23.8319 10.6157 23.0403C10.4038 22.9612 10.3057 22.9107 10.2015 22.8882C9.84103 22.8107 9.474 22.7603 9.11775 22.6677C8.47442 22.5004 7.83782 22.3076 7.19686 22.1311C6.99938 22.0767 6.80313 22.0332 6.63974 22.2329C6.17808 22.797 5.77588 23.3867 5.71432 24.2224ZM2.09163 14.5927C2.28439 14.1681 2.43658 13.8329 2.58877 13.4977C2.61491 13.5109 2.6411 13.5241 2.66723 13.5374C2.55683 13.8611 2.44649 14.1849 2.29789 14.6207C2.49614 14.5184 2.63714 14.4935 2.66436 14.4239C2.86322 13.9157 3.03924 13.3986 3.23795 12.8409C2.25933 13.3091 1.98396 13.7105 2.09163 14.5927ZM16.7308 15.6028C16.6897 15.8421 16.6542 16.0485 16.6187 16.2549C16.6597 16.2684 16.7006 16.2819 16.7416 16.2953C16.9998 16.0779 16.9612 15.7244 17.1073 15.4089C16.8472 15.3429 16.6393 15.2901 16.3902 15.2269C16.2878 15.5908 16.196 15.9167 16.0924 16.285C16.6052 16.2914 16.4335 15.7947 16.7308 15.6028ZM15.5801 16.3527C15.6219 16.3667 15.6636 16.3807 15.7054 16.3947C16.0945 16.1145 16.0837 15.6553 16.2213 15.1168C16.0209 15.213 15.8616 15.2392 15.84 15.3084C15.7333 15.6502 15.6631 16.0035 15.5801 16.3527ZM5.52849 21.5252C5.58718 21.9059 5.62995 22.1833 5.68818 22.5608C5.93336 22.2752 6.10183 22.0789 6.29937 21.8489C6.02471 21.7336 5.82456 21.6495 5.52849 21.5252ZM17.3769 17.95C17.4439 17.668 17.4933 17.4603 17.5443 17.2459C17.2927 17.1346 17.0841 17.0425 16.8046 16.9189C17.0127 17.2938 17.1758 17.5877 17.3769 17.95ZM7.46997 19.1686C7.51988 18.8585 7.56974 18.5484 7.62782 18.1876C7.18433 18.4416 7.14315 18.6326 7.46997 19.1686Z" fill="white"/>
<path d="M7.35186 25.3737C7.4334 25.5816 7.51489 25.7895 7.59643 25.9975C7.56505 26.0088 7.53368 26.0202 7.50226 26.0316C7.42755 25.8217 7.35279 25.6117 7.27808 25.4018C7.30262 25.3924 7.32722 25.3831 7.35186 25.3737Z" fill="white"/>
<path d="M6.77663 25.5495C6.82525 25.6516 6.87383 25.7537 6.9224 25.8557C6.90037 25.866 6.87835 25.8762 6.85632 25.8865C6.80939 25.7836 6.76251 25.6807 6.71558 25.5779C6.73596 25.5684 6.75629 25.559 6.77663 25.5495Z" fill="white"/>
<path d="M6.25727 26.0105C6.1763 25.8876 6.09533 25.7647 6.0144 25.6417C6.05137 25.6252 6.08834 25.6087 6.12531 25.5922C6.16521 25.7352 6.20516 25.8781 6.24495 26.0212C6.24485 26.0214 6.25727 26.0105 6.25727 26.0105Z" fill="white"/>
<path d="M14.1801 16.0549C14.1009 16.2493 14.0217 16.4438 13.9424 16.6382C14.0216 16.4438 14.1008 16.2494 14.1801 16.0549Z" fill="white"/>
<path d="M14.4027 15.4977C14.3237 15.692 14.2446 15.8863 14.1655 16.0806C14.2446 15.8863 14.3237 15.692 14.4027 15.4977Z" fill="white"/>
<path d="M8.77051 19.5846C8.65637 19.0758 8.7145 18.5034 9.00543 17.8594C8.97621 18.1459 8.95526 18.4336 8.91557 18.7187C8.8749 19.0107 8.81585 19.3002 8.76286 19.5931C8.76091 19.5954 8.77051 19.5846 8.77051 19.5846Z" fill="white"/>
</g>
<defs>
<clipPath id="clip0">
<rect width="20.06" height="20.0909" fill="white" transform="translate(0 9.06061)"/>
</clipPath>
</defs>
</svg>
